<svg width="19" height="21" viewBox="0 0 19 21" fill="none" xmlns="http://www.w3.org/2000/svg">
<path d="M1.46015 3.91485C1.79634 3.57866 2.3412 3.57866 2.67739 3.91485L9.49982 10.7373L16.3223 3.91485C16.6585 3.57866 17.2033 3.57866 17.5395 3.91485C17.8757 4.25104 17.8757 4.7959 17.5395 5.13209L10.7171 11.9545L17.5395 18.777C17.8757 19.1132 17.8757 19.658 17.5395 19.9942C17.2033 20.3304 16.6585 20.3304 16.3223 19.9942L9.49982 13.1718L2.67739 19.9942C2.3412 20.3304 1.79634 20.3304 1.46015 19.9942C1.12396 19.658 1.12396 19.1132 1.46015 18.777L8.28259 11.9545L1.46015 5.13209C1.12396 4.7959 1.12396 4.25104 1.46015 3.91485Z" fill="#2C3946" stroke="#2C3946" stroke-width="0.22"/>
</svg>
