<svg xmlns="http://www.w3.org/2000/svg" viewBox="0 0 122 120">
  <path d="M60 0C26.863 0 0 26.863 0 60c0 33.138 26.863 60 60 60s60-26.861 60-60c0-33.137-26.862-60-60-60zm0 110.146C32.35 110.146 9.854 87.65 9.854 60S32.35 9.854 60 9.854c27.65 0 50.145 22.496 50.145 50.146S87.65 110.146 60 110.146z" fill="inherit" />
  <path d="M97.071 48.281c-.007-.047-.019-.092-.026-.139-.016-.09-.032-.18-.056-.267-.014-.053-.033-.104-.05-.154a3.193 3.193 0 00-.082-.232c-.021-.053-.047-.105-.071-.156a2.31 2.31 0 00-.108-.21c-.029-.051-.061-.1-.091-.148a2.895 2.895 0 00-.244-.331 3.237 3.237 0 00-.159-.172c-.042-.043-.083-.086-.127-.125a3.621 3.621 0 00-.18-.152c-.048-.037-.095-.074-.145-.109-.019-.012-.035-.027-.053-.039l-33.91-22.609a3.188 3.188 0 00-3.537 0L24.321 46.045c-.018.012-.034.027-.053.039a3.825 3.825 0 00-.325.261c-.045.039-.086.082-.128.125a2.847 2.847 0 00-.402.503 4.547 4.547 0 00-.092.148 3.196 3.196 0 00-.108.21c-.024.051-.049.104-.071.156a3.193 3.193 0 00-.082.232c-.017.051-.035.102-.05.154-.023.087-.039.177-.056.267-.008.047-.02.092-.025.139a3.018 3.018 0 00-.029.416v22.607c0 .141.011.279.029.418.006.045.018.092.025.137.017.09.032.18.056.268.015.053.033.104.05.154.025.078.051.155.082.233.021.053.047.104.071.154.034.072.069.143.108.213.029.049.06.098.092.146a2.882 2.882 0 00.244.332c.05.059.103.117.158.172.042.043.083.086.128.124.058.053.118.104.181.152.047.037.094.074.144.109.019.012.035.027.053.039L58.232 96.56a3.185 3.185 0 003.537 0L95.68 73.956c.018-.012.034-.027.053-.039.05-.035.097-.072.145-.109.061-.049.121-.1.18-.152.044-.038.085-.081.127-.124a2.865 2.865 0 00.403-.504l.091-.146c.04-.07.075-.141.108-.213.024-.051.05-.102.071-.154.031-.078.057-.155.082-.233.017-.051.036-.102.05-.154.023-.088.04-.178.056-.268.008-.045.02-.092.026-.137.018-.139.028-.277.028-.418V48.697c0-.14-.011-.279-.029-.416zM63.188 32.048L88.17 48.701l-11.158 7.465-13.823-9.247V32.048zm-6.376 0v14.871L42.99 56.166l-11.159-7.465 24.981-16.653zM29.278 54.665L37.255 60l-7.977 5.335v-10.67zm27.534 33.288L31.831 71.3l11.159-7.463 13.822 9.245v14.871zM60 67.543L48.723 60 60 52.458 71.276 60 60 67.543zm3.188 20.41V73.082l13.823-9.245L88.17 71.3 63.188 87.953zm27.535-22.617L82.746 60l7.977-5.335v10.671z" fill="currentColor" />
</svg>
