<svg xmlns="http://www.w3.org/2000/svg" width="20" height="20" fill="none" viewBox="0 0 20 20">
  <g clip-path="url(#prefix__clip0_39_493)">
    <path fill="#55ACEE" d="M17.96 6.457c0-.18-.007-.356-.015-.53A8.185 8.185 0 0020 3.8a8.563 8.563 0 01-2.363.647 4.078 4.078 0 001.805-2.266 8.204 8.204 0 01-2.6.992 4.099 4.099 0 00-7.093 2.803c0 .326.028.638.095.936a11.608 11.608 0 01-8.451-4.29A4.135 4.135 0 00.83 4.695c0 1.42.73 2.678 1.821 3.408A4.053 4.053 0 01.8 7.597v.045a4.12 4.12 0 003.285 4.029c-.627.171-1.398.165-1.85.065.53 1.623 2.038 2.817 3.83 2.856a8.242 8.242 0 01-5.084 1.749c-.336 0-.658-.015-.981-.056a11.547 11.547 0 006.29 1.84c7.545 0 11.67-6.25 11.67-11.668z"/>
  </g>
  <defs>
    <clipPath id="prefix__clip0_39_493">
      <path fill="#fff" d="M0 0h20v20H0z"/>
    </clipPath>
  </defs>
</svg>
