<svg xmlns="http://www.w3.org/2000/svg" width="20" height="20" fill="none" viewBox="0 0 20 20">
  <g clip-path="url(#prefix__clip0_39_508)">
    <path fill="#4B729F" d="M16.596 10.857c-.323-.409-.231-.59 0-.955.004-.004 2.673-3.693 2.948-4.944h.002c.137-.456 0-.791-.661-.791h-2.187c-.556 0-.813.287-.95.609 0 0-1.114 2.665-2.689 4.392-.508.5-.743.66-1.02.66-.137 0-.35-.16-.35-.616V4.958c0-.547-.156-.791-.617-.791H7.634c-.349 0-.557.255-.557.492 0 .519.788.638.87 2.096v3.164c0 .694-.126.821-.405.821-.744 0-2.548-2.676-3.617-5.738-.216-.595-.427-.834-.987-.834H.75c-.624 0-.75.287-.75.609 0 .568.743 3.394 3.457 7.127 1.808 2.549 4.355 3.93 6.671 3.93 1.393 0 1.563-.307 1.563-.835 0-2.435-.126-2.665.571-2.665.324 0 .88.16 2.18 1.39 1.486 1.457 1.73 2.11 2.562 2.11h2.187c.623 0 .939-.307.757-.912-.416-1.273-3.226-3.89-3.352-4.065z"/>
  </g>
  <defs>
    <clipPath id="prefix__clip0_39_508">
      <path fill="#fff" d="M0 0h20v20H0z"/>
    </clipPath>
  </defs>
</svg>
