<svg xmlns="http://www.w3.org/2000/svg" width="20" height="20" fill="none" viewBox="0 0 20 20">
  <g clip-path="url(#prefix__clip0_39_498)">
    <path fill="#ECEFF1" d="M17.1 2.874C15.2 1.037 12.7 0 10.037 0 2.396 0-2.402 8.28 1.413 14.865L0 20l5.28-1.377c2.3 1.243 4.183 1.133 4.763 1.206 8.86 0 13.271-10.72 7.044-16.922l.013-.033z"/>
    <path fill="#4CAF50" d="M10.056 18.126l-.005-.001h-.014c-2.651 0-4.345-1.256-4.512-1.328l-3.125.812.838-3.037-.2-.313a8.224 8.224 0 01-1.263-4.383c0-7.328 8.954-10.992 14.136-5.813 5.169 5.125 1.54 14.063-5.855 14.063z"/>
    <path fill="#FAFAFA" d="M14.59 11.922l-.008.063c-.251-.125-1.473-.723-1.7-.805-.511-.19-.367-.03-1.348 1.093-.146.163-.29.175-.538.063-.25-.125-1.053-.388-2.003-1.238-.74-.662-1.236-1.475-1.383-1.725-.244-.421.267-.481.732-1.361.083-.175.04-.313-.021-.437-.063-.125-.56-1.35-.769-1.838-.2-.487-.405-.425-.56-.425-.48-.042-.83-.035-1.14.286-1.345 1.479-1.005 3.004.145 4.625 2.262 2.96 3.467 3.505 5.67 4.262.595.19 1.138.163 1.567.1.479-.075 1.473-.6 1.68-1.188.213-.587.213-1.075.15-1.187-.062-.113-.225-.175-.475-.288z"/>
  </g>
  <defs>
    <clipPath id="prefix__clip0_39_498">
      <path fill="#fff" d="M0 0h20v20H0z"/>
    </clipPath>
  </defs>
</svg>
